<svg width="43" height="18" viewBox="0 0 43 18" fill="none" xmlns="http://www.w3.org/2000/svg">
<path d="M9.76172 13.2031V17H1.67578V13.1797L2.73047 13.2031V5.86719H0.808594V2.84375L8.56641 0.898438L8.63672 13.2031H9.76172ZM18.7031 17.3164C16.4141 17.3164 14.6289 16.5742 13.3477 15.0898C12.0664 13.5977 11.4258 11.5234 11.4258 8.86719C11.4258 6.35156 12.0625 4.39453 13.3359 2.99609C14.6094 1.59766 16.3867 0.898438 18.668 0.898438C20.957 0.898438 22.7383 1.59766 24.0117 2.99609C25.2852 4.39453 25.9219 6.35156 25.9219 8.86719C25.9219 10.6328 25.6367 12.1445 25.0664 13.4023C24.4961 14.668 23.668 15.6367 22.582 16.3086C21.4961 16.9805 20.2031 17.3164 18.7031 17.3164ZM20.1914 9.19531C20.1914 8.22656 20.1484 7.45312 20.0625 6.875C19.9688 6.32031 19.8125 5.92578 19.5938 5.69141C19.3828 5.45703 19.0859 5.33984 18.7031 5.33984C18.2969 5.33984 17.9805 5.45703 17.7539 5.69141C17.4883 5.95703 17.3125 6.40234 17.2266 7.02734C17.1484 7.64453 17.1094 8.35938 17.1094 9.17188C17.1094 10.1562 17.1602 10.9023 17.2617 11.4102C17.3555 11.9492 17.5117 12.3359 17.7305 12.5703C17.957 12.8047 18.2617 12.9219 18.6445 12.9219C19.0508 12.9219 19.3633 12.8047 19.582 12.5703C19.8242 12.3047 19.9844 11.8711 20.0625 11.2695C20.1484 10.668 20.1914 9.97656 20.1914 9.19531ZM34.8984 17.3164C32.6094 17.3164 30.8242 16.5742 29.543 15.0898C28.2617 13.5977 27.6211 11.5234 27.6211 8.86719C27.6211 6.35156 28.2578 4.39453 29.5312 2.99609C30.8047 1.59766 32.582 0.898438 34.8633 0.898438C37.1523 0.898438 38.9336 1.59766 40.207 2.99609C41.4805 4.39453 42.1172 6.35156 42.1172 8.86719C42.1172 10.6328 41.832 12.1445 41.2617 13.4023C40.6914 14.668 39.8633 15.6367 38.7773 16.3086C37.6914 16.9805 36.3984 17.3164 34.8984 17.3164ZM36.3867 9.19531C36.3867 8.22656 36.3438 7.45312 36.2578 6.875C36.1641 6.32031 36.0078 5.92578 35.7891 5.69141C35.5781 5.45703 35.2812 5.33984 34.8984 5.33984C34.4922 5.33984 34.1758 5.45703 33.9492 5.69141C33.6836 5.95703 33.5078 6.40234 33.4219 7.02734C33.3438 7.64453 33.3047 8.35938 33.3047 9.17188C33.3047 10.1562 33.3555 10.9023 33.457 11.4102C33.5508 11.9492 33.707 12.3359 33.9258 12.5703C34.1523 12.8047 34.457 12.9219 34.8398 12.9219C35.2461 12.9219 35.5586 12.8047 35.7773 12.5703C36.0195 12.3047 36.1797 11.8711 36.2578 11.2695C36.3438 10.668 36.3867 9.97656 36.3867 9.19531Z" fill="#35B1B1"/>
</svg>
