<svg width="28" height="18" viewBox="0 0 28 18" fill="none" xmlns="http://www.w3.org/2000/svg">
<path d="M4.37891 17.2344C3.85547 17.2344 3.30859 17.1914 2.73828 17.1055C2.16797 17.0273 1.64453 16.9062 1.16797 16.7422C0.699219 16.5781 0.335938 16.375 0.078125 16.1328L0.101562 16.1094V12.9453C1.00781 13.4531 1.87109 13.707 2.69141 13.707C3.34766 13.707 3.9375 13.543 4.46094 13.2148C4.99219 12.8867 5.25781 12.4141 5.25781 11.7969C5.25781 11.1719 5 10.6797 4.48438 10.3203C3.97656 9.96094 3.36328 9.78125 2.64453 9.78125C1.79297 9.78125 0.984375 10.0273 0.21875 10.5195L0.078125 10.4023V1.08594H10.8008V4.56641H3.65234V6.19531C4.39453 6.07031 5.21875 6.00781 6.125 6.00781C7.13281 6.00781 8.0625 6.21875 8.91406 6.64062C9.75781 7.07031 10.4297 7.66406 10.9297 8.42188C11.4375 9.17969 11.6914 10.0391 11.6914 11C11.6914 12.3047 11.3906 13.4336 10.7891 14.3867C10.1797 15.332 9.32031 16.043 8.21094 16.5195C7.10938 16.9961 5.83203 17.2344 4.37891 17.2344ZM20.6797 17.3164C18.3906 17.3164 16.6055 16.5742 15.3242 15.0898C14.043 13.5977 13.4023 11.5234 13.4023 8.86719C13.4023 6.35156 14.0391 4.39453 15.3125 2.99609C16.5859 1.59766 18.3633 0.898438 20.6445 0.898438C22.9336 0.898438 24.7148 1.59766 25.9883 2.99609C27.2617 4.39453 27.8984 6.35156 27.8984 8.86719C27.8984 10.6328 27.6133 12.1445 27.043 13.4023C26.4727 14.668 25.6445 15.6367 24.5586 16.3086C23.4727 16.9805 22.1797 17.3164 20.6797 17.3164ZM22.168 9.19531C22.168 8.22656 22.125 7.45312 22.0391 6.875C21.9453 6.32031 21.7891 5.92578 21.5703 5.69141C21.3594 5.45703 21.0625 5.33984 20.6797 5.33984C20.2734 5.33984 19.957 5.45703 19.7305 5.69141C19.4648 5.95703 19.2891 6.40234 19.2031 7.02734C19.125 7.64453 19.0859 8.35938 19.0859 9.17188C19.0859 10.1562 19.1367 10.9023 19.2383 11.4102C19.332 11.9492 19.4883 12.3359 19.707 12.5703C19.9336 12.8047 20.2383 12.9219 20.6211 12.9219C21.0273 12.9219 21.3398 12.8047 21.5586 12.5703C21.8008 12.3047 21.9609 11.8711 22.0391 11.2695C22.125 10.668 22.168 9.97656 22.168 9.19531Z" fill="#35B1B1"/>
</svg>
