<svg width="25" height="25" viewBox="0 0 25 25" fill="none" xmlns="http://www.w3.org/2000/svg">
<path d="M19.0317 0.849164L12.2132 7.66769L5.39467 0.849164C4.55798 0.0124731 3.20091 0.0124734 2.36422 0.849163L0.848987 2.36439C0.0122962 3.20108 0.0122966 4.55816 0.848987 5.39485L7.66752 12.2134L0.848987 19.0319C0.0122966 19.8686 0.0122962 21.2257 0.848987 22.0624L2.36422 23.5776C3.20091 24.4143 4.55798 24.4143 5.39467 23.5776L12.2132 16.7591L19.0317 23.5776C19.8684 24.4143 21.2255 24.4143 22.0622 23.5776L23.5774 22.0624C24.4141 21.2257 24.4141 19.8686 23.5774 19.0319L16.7589 12.2134L23.5774 5.39485C24.4141 4.55816 24.4141 3.20108 23.5774 2.36439L22.0622 0.849162C21.2255 0.012472 19.8684 0.0124727 19.0317 0.849164Z" fill="#45BA66"/>
</svg>
