<svg width="22" height="20" viewBox="0 0 22 20" fill="none" xmlns="http://www.w3.org/2000/svg">
<g clip-path="url(#clip0_660_204)">
<path d="M15.3656 13.1732L16.5878 11.951C16.7788 11.76 17.1111 11.8937 17.1111 12.1687V17.7222C17.1111 18.7343 16.2899 19.5555 15.2778 19.5555H1.83333C0.821181 19.5555 0 18.7343 0 17.7222V4.27772C0 3.26556 0.821181 2.44438 1.83333 2.44438H12.2795C12.5507 2.44438 12.6882 2.77285 12.4972 2.96764L11.275 4.18987C11.2177 4.24716 11.1413 4.27772 11.0573 4.27772H1.83333V17.7222H15.2778V13.3871C15.2778 13.3069 15.3083 13.2305 15.3656 13.1732ZM21.3469 5.46556L11.317 15.4954L7.86424 15.8774C6.86354 15.9881 6.01181 15.144 6.12257 14.1357L6.50451 10.6829L16.5344 0.65306C17.409 -0.221593 18.8222 -0.221593 19.6931 0.65306L21.3431 2.30306C22.2177 3.17771 22.2177 4.59473 21.3469 5.46556V5.46556ZM17.5733 6.64577L15.3542 4.42667L8.25764 11.527L7.97882 14.0211L10.4729 13.7423L17.5733 6.64577ZM20.0483 3.60167L18.3983 1.95167C18.2417 1.79507 17.9858 1.79507 17.833 1.95167L16.6528 3.13188L18.8719 5.35098L20.0521 4.17077C20.2049 4.01035 20.2049 3.75827 20.0483 3.60167V3.60167Z" fill="#767676"/>
</g>
<defs>
<clipPath id="clip0_660_204">
<rect width="22" height="19.5556" fill="white"/>
</clipPath>
</defs>
</svg>
