<svg width="16" height="16" viewBox="0 0 16 16" fill="none" xmlns="http://www.w3.org/2000/svg">
<path d="M0.571429 2.93878H15.4286C15.7442 2.93878 16 2.64641 16 2.28571V0.653061C16 0.292367 15.7442 0 15.4286 0H0.571429C0.255821 0 0 0.292367 0 0.653061V2.28571C0 2.64641 0.255821 2.93878 0.571429 2.93878ZM0.571429 9.46939H15.4286C15.7442 9.46939 16 9.17702 16 8.81633V7.18367C16 6.82298 15.7442 6.53061 15.4286 6.53061H0.571429C0.255821 6.53061 0 6.82298 0 7.18367V8.81633C0 9.17702 0.255821 9.46939 0.571429 9.46939ZM0.571429 16H15.4286C15.7442 16 16 15.7076 16 15.3469V13.7143C16 13.3536 15.7442 13.0612 15.4286 13.0612H0.571429C0.255821 13.0612 0 13.3536 0 13.7143V15.3469C0 15.7076 0.255821 16 0.571429 16Z" fill="#767676"/>
</svg>
