<svg width="26" height="26" viewBox="0 0 26 26" fill="none" xmlns="http://www.w3.org/2000/svg">
<path d="M6.69394 23.0139C8.85972 23.0139 10.6154 21.3291 10.6154 19.2508C10.6154 17.1726 8.85972 15.4878 6.69394 15.4878C4.52817 15.4878 2.77246 17.1726 2.77246 19.2508C2.77246 21.3291 4.52817 23.0139 6.69394 23.0139Z" fill="#FED0AC"/>
<path d="M18.6568 23.0139C20.8226 23.0139 22.5783 21.3291 22.5783 19.2508C22.5783 17.1726 20.8226 15.4878 18.6568 15.4878C16.4911 15.4878 14.7354 17.1726 14.7354 19.2508C14.7354 21.3291 16.4911 23.0139 18.6568 23.0139Z" fill="#FED0AC"/>
<path d="M18.657 19.5679C17.1518 19.5679 15.9238 20.3997 15.9238 21.4296C15.9238 21.6673 16.003 21.9049 16.1219 22.1426C16.7953 22.6971 17.6667 23.0536 18.657 23.0536C19.6076 23.0536 20.5187 22.6971 21.1921 22.1426C21.3109 21.9445 21.3901 21.7069 21.3901 21.4296C21.3901 20.3997 20.2018 19.5679 18.657 19.5679Z" fill="#EBBC99"/>
<path d="M6.69409 19.5679C8.19931 19.5679 9.42725 20.3997 9.42725 21.4296C9.42725 21.6673 9.34802 21.9049 9.22919 22.1426C8.5558 22.6971 7.68436 23.0536 6.69409 23.0536C5.74343 23.0536 4.83238 22.6971 4.15899 22.1426C4.04016 21.9445 3.96094 21.7069 3.96094 21.4296C3.96094 20.3997 5.14927 19.5679 6.69409 19.5679Z" fill="#EBBC99"/>
<path d="M12.6754 21.1125C11.4475 21.1125 9.90266 20.756 7.76367 20.3203L8.19939 22.7366C9.34811 23.8457 10.9325 24.5587 12.6754 24.5587C14.4183 24.5587 16.0027 23.8457 17.1515 22.7366L17.5872 20.3203C15.4482 20.756 13.9034 21.1125 12.6754 21.1125Z" fill="#EBBC99"/>
<path d="M6.97168 21.0729C8.43728 21.5086 8.83339 23.2911 8.83339 23.2911C8.83339 23.2911 7.84312 22.5385 6.6944 22.3008C4.04047 21.7463 5.18919 20.4787 6.97168 21.0729Z" fill="#AD6C3F"/>
<path d="M18.3793 21.0729C16.9137 21.5086 16.5176 23.2911 16.5176 23.2911C16.5176 23.2911 17.5078 22.5385 18.6566 22.3008C21.3501 21.7463 20.1618 20.4787 18.3793 21.0729Z" fill="#AD6C3F"/>
<path d="M17.0331 8.39729C17.0331 1.98032 15.0922 0.791992 12.6759 0.791992C10.2596 0.791992 8.27908 1.98032 8.27908 8.39729C8.27908 10.259 6.81348 15.6857 6.81348 17.9039C6.81348 21.1916 9.4278 21.3105 12.6759 21.3105C15.924 21.3105 18.5383 21.1916 18.5383 17.9039C18.5383 15.6857 17.0331 10.259 17.0331 8.39729Z" fill="#FED0AC"/>
</svg>
