<svg width="30" height="7" viewBox="0 0 30 7" fill="none" xmlns="http://www.w3.org/2000/svg">
<path d="M10.4766 6.62891L10.4531 6.60547C9.96094 6.60547 9.48438 6.50781 9.02344 6.3125C8.57031 6.10938 8.01562 5.80859 7.35938 5.41016C6.67188 5.01172 6.10547 4.71484 5.66016 4.51953C5.22266 4.32422 4.76562 4.22656 4.28906 4.22656C4.04688 4.22656 3.76562 4.38672 3.44531 4.70703C3.125 5.02734 2.69531 5.51562 2.15625 6.17188L1.81641 6.55859L0.28125 5.55078C0.40625 5.33984 0.546875 5.08594 0.703125 4.78906C0.867188 4.48438 0.984375 4.26562 1.05469 4.13281C1.22656 3.78125 1.38672 3.46484 1.53516 3.18359C1.68359 2.90234 1.82422 2.65234 1.95703 2.43359C2.21484 2.00391 2.55078 1.63672 2.96484 1.33203C3.38672 1.02734 3.875 0.875 4.42969 0.875C5.00781 0.875 5.53906 0.980469 6.02344 1.19141C6.51562 1.39453 7.12109 1.70312 7.83984 2.11719C8.43359 2.46875 8.9375 2.73828 9.35156 2.92578C9.76562 3.10547 10.1914 3.19531 10.6289 3.19531C10.8633 3.19531 11.1719 3.00781 11.5547 2.63281C11.7422 2.44531 11.9609 2.21094 12.2109 1.92969C12.4688 1.64062 12.7578 1.30469 13.0781 0.921875L14.5898 1.92969C14.3008 2.35938 13.9727 2.95703 13.6055 3.72266C13.4336 4.05859 13.2773 4.35938 13.1367 4.625C12.9961 4.88281 12.8672 5.10547 12.75 5.29297C12.5156 5.67578 12.2148 5.99609 11.8477 6.25391C11.4805 6.50391 11.0234 6.62891 10.4766 6.62891ZM25.3594 6.62891L25.3359 6.60547C24.8438 6.60547 24.3672 6.50781 23.9062 6.3125C23.4531 6.10938 22.8984 5.80859 22.2422 5.41016C21.5547 5.01172 20.9883 4.71484 20.543 4.51953C20.1055 4.32422 19.6484 4.22656 19.1719 4.22656C18.9297 4.22656 18.6484 4.38672 18.3281 4.70703C18.0078 5.02734 17.5781 5.51562 17.0391 6.17188L16.6992 6.55859L15.1641 5.55078C15.2891 5.33984 15.4297 5.08594 15.5859 4.78906C15.75 4.48438 15.8672 4.26562 15.9375 4.13281C16.1094 3.78125 16.2695 3.46484 16.418 3.18359C16.5664 2.90234 16.707 2.65234 16.8398 2.43359C17.0977 2.00391 17.4336 1.63672 17.8477 1.33203C18.2695 1.02734 18.7578 0.875 19.3125 0.875C19.8906 0.875 20.4219 0.980469 20.9062 1.19141C21.3984 1.39453 22.0039 1.70312 22.7227 2.11719C23.3164 2.46875 23.8203 2.73828 24.2344 2.92578C24.6484 3.10547 25.0742 3.19531 25.5117 3.19531C25.7461 3.19531 26.0547 3.00781 26.4375 2.63281C26.625 2.44531 26.8438 2.21094 27.0938 1.92969C27.3516 1.64062 27.6406 1.30469 27.9609 0.921875L29.4727 1.92969C29.1836 2.35938 28.8555 2.95703 28.4883 3.72266C28.3164 4.05859 28.1602 4.35938 28.0195 4.625C27.8789 4.88281 27.75 5.10547 27.6328 5.29297C27.3984 5.67578 27.0977 5.99609 26.7305 6.25391C26.3633 6.50391 25.9062 6.62891 25.3594 6.62891Z" fill="#35B1B1"/>
</svg>
