<svg width="34" height="36" viewBox="0 0 34 36" fill="none" xmlns="http://www.w3.org/2000/svg">
<g filter="url(#filter0_d_726_225)">
<g clip-path="url(#clip0_726_225)">
<path d="M29.0714 1.75001H22.1071L21.5616 0.727354C21.446 0.508721 21.268 0.324811 21.0476 0.196315C20.8272 0.067819 20.573 -0.000165592 20.3138 9.58822e-06H13.6804C13.4217 -0.000927239 13.1681 0.0668039 12.9484 0.195443C12.7288 0.324082 12.552 0.508426 12.4384 0.727354L11.8929 1.75001H4.92857C4.6823 1.75001 4.44611 1.8422 4.27197 2.00629C4.09783 2.17039 4 2.39295 4 2.62501V4.37501C4 4.60708 4.09783 4.82964 4.27197 4.99373C4.44611 5.15783 4.6823 5.25001 4.92857 5.25001H29.0714C29.3177 5.25001 29.5539 5.15783 29.728 4.99373C29.9022 4.82964 30 4.60708 30 4.37501V2.62501C30 2.39295 29.9022 2.17039 29.728 2.00629C29.5539 1.8422 29.3177 1.75001 29.0714 1.75001V1.75001ZM7.0875 25.5391C7.13179 26.2055 7.44393 26.831 7.96039 27.2882C8.47685 27.7454 9.15879 28 9.86741 28H24.1326C24.8412 28 25.5232 27.7454 26.0396 27.2882C26.5561 26.831 26.8682 26.2055 26.9125 25.5391L28.1429 7.00002H5.85714L7.0875 25.5391Z" fill="white"/>
</g>
</g>
<defs>
<filter id="filter0_d_726_225" x="0" y="0" width="34" height="36" filterUnits="userSpaceOnUse" color-interpolation-filters="sRGB">
<feFlood flood-opacity="0" result="BackgroundImageFix"/>
<feColorMatrix in="SourceAlpha" type="matrix" values="0 0 0 0 0 0 0 0 0 0 0 0 0 0 0 0 0 0 127 0" result="hardAlpha"/>
<feOffset dy="4"/>
<feGaussianBlur stdDeviation="2"/>
<feComposite in2="hardAlpha" operator="out"/>
<feColorMatrix type="matrix" values="0 0 0 0 0 0 0 0 0 0 0 0 0 0 0 0 0 0 0.25 0"/>
<feBlend mode="normal" in2="BackgroundImageFix" result="effect1_dropShadow_726_225"/>
<feBlend mode="normal" in="SourceGraphic" in2="effect1_dropShadow_726_225" result="shape"/>
</filter>
<clipPath id="clip0_726_225">
<rect width="26" height="28" fill="white" transform="translate(4)"/>
</clipPath>
</defs>
</svg>
