<svg width="16" height="15" viewBox="0 0 16 15" fill="none" xmlns="http://www.w3.org/2000/svg">
<path d="M0 7.38627V1.40625C0 0.62959 0.642902 0 1.43598 0H7.54244C7.92329 1.95022e-06 8.28853 0.148161 8.55783 0.411885L14.8966 6.61937C15.4573 7.16854 15.4573 8.05893 14.8966 8.6081L8.7901 14.5881C8.22932 15.1373 7.3201 15.1373 6.75932 14.5881L0.420594 8.38064C0.151294 8.11692 1.99146e-06 7.75923 0 7.38627H0ZM3.35063 1.875C2.55755 1.875 1.91464 2.50459 1.91464 3.28125C1.91464 4.05791 2.55755 4.6875 3.35063 4.6875C4.14371 4.6875 4.78661 4.05791 4.78661 3.28125C4.78661 2.50459 4.14371 1.875 3.35063 1.875Z" fill="white"/>
</svg>
