<svg width="21" height="22" viewBox="0 0 21 22" fill="none" xmlns="http://www.w3.org/2000/svg">
<path d="M20.035 12.3187C20.4119 11.6806 20.625 11 20.625 10.1771C20.625 8.28588 19.0258 6.49988 16.9374 6.49988H15.3699C15.5813 5.94945 15.7502 5.29117 15.7502 4.50012C15.7502 1.37225 14.1307 0 11.6566 0C9.00939 0 9.16038 4.07915 8.57312 4.66641C7.59571 5.64382 6.44123 7.52155 5.61859 8.25H1.375C0.615613 8.25 0 8.86561 0 9.625V19.9375C0 20.6969 0.615613 21.3125 1.375 21.3125H4.125C4.76493 21.3125 5.30269 20.8753 5.45609 20.2834C7.36858 20.3264 8.68132 21.9996 13.096 21.9996C13.4062 21.9996 13.75 22 14.0508 22C17.3644 22 18.8627 20.306 18.9037 17.9038C19.476 17.1121 19.7759 16.0509 19.6488 15.0253C20.0722 14.2325 20.2359 13.2918 20.035 12.3187ZM17.3817 14.6317C17.9214 15.5396 17.4359 16.7548 16.7827 17.1054C17.1136 19.2014 16.0261 19.9371 14.5002 19.9371H12.8752C9.79692 19.9371 7.8036 18.312 5.5 18.312V10.3125H5.96922C7.18781 10.3125 8.89023 7.26645 10.0315 6.12477C11.2501 4.90617 10.844 2.87504 11.6566 2.0625C13.6877 2.0625 13.6877 3.47961 13.6877 4.50012C13.6877 6.1832 12.4691 6.9373 12.4691 8.56238H16.9374C17.8445 8.56238 18.5586 9.37492 18.5625 10.1875C18.5664 10.9996 18.0116 11.8121 17.6056 11.8121C18.1852 12.4375 18.309 13.7558 17.3817 14.6317ZM3.78125 18.5625C3.78125 19.1321 3.31955 19.5938 2.75 19.5938C2.18045 19.5938 1.71875 19.1321 1.71875 18.5625C1.71875 17.9929 2.18045 17.5312 2.75 17.5312C3.31955 17.5312 3.78125 17.9929 3.78125 18.5625Z" fill="#767676"/>
</svg>
