<svg width="10" height="10" viewBox="0 0 10 10" fill="none" xmlns="http://www.w3.org/2000/svg">
<path d="M2.03125 4.375H0.46875C0.209863 4.375 0 4.58486 0 4.84375V9.53125C0 9.79014 0.209863 10 0.46875 10H2.03125C2.29014 10 2.5 9.79014 2.5 9.53125V4.84375C2.5 4.58486 2.29014 4.375 2.03125 4.375ZM1.25 9.21875C0.991113 9.21875 0.78125 9.00889 0.78125 8.75C0.78125 8.49111 0.991113 8.28125 1.25 8.28125C1.50889 8.28125 1.71875 8.49111 1.71875 8.75C1.71875 9.00889 1.50889 9.21875 1.25 9.21875ZM7.5 1.59086C7.5 2.4193 6.99277 2.88398 6.85006 3.4375H8.83684C9.48912 3.4375 9.99693 3.97941 9.99998 4.57223C10.0016 4.92258 9.8526 5.29975 9.62031 5.53311L9.61816 5.53525C9.81027 5.99105 9.77904 6.62973 9.43637 7.08738C9.60592 7.59314 9.43502 8.21441 9.11641 8.54748C9.20035 8.89119 9.16023 9.18371 8.99633 9.4192C8.5977 9.99193 7.60969 10 6.7742 10L6.71863 9.99998C5.77553 9.99965 5.00367 9.65627 4.38348 9.38035C4.07182 9.2417 3.66432 9.07006 3.35514 9.06437C3.2274 9.06203 3.125 8.95779 3.125 8.83004V4.65484C3.125 4.59234 3.15004 4.53236 3.19449 4.48842C3.9682 3.72389 4.3009 2.91445 4.93506 2.27922C5.2242 1.98953 5.32936 1.55195 5.43102 1.12879C5.51787 0.767441 5.69955 0 6.09375 0C6.5625 0 7.5 0.15625 7.5 1.59086Z" fill="#767676"/>
</svg>
