<svg width="20" height="22" viewBox="0 0 20 22" fill="none" xmlns="http://www.w3.org/2000/svg">
<g clip-path="url(#clip0_344_207)">
<path d="M11.5156 17.875H12.5469C12.6836 17.875 12.8148 17.8207 12.9115 17.724C13.0082 17.6273 13.0625 17.4961 13.0625 17.3594V8.07812C13.0625 7.94137 13.0082 7.81022 12.9115 7.71352C12.8148 7.61682 12.6836 7.5625 12.5469 7.5625H11.5156C11.3789 7.5625 11.2477 7.61682 11.151 7.71352C11.0543 7.81022 11 7.94137 11 8.07812V17.3594C11 17.4961 11.0543 17.6273 11.151 17.724C11.2477 17.8207 11.3789 17.875 11.5156 17.875ZM18.5625 3.4375H15.0214L13.5605 1.00117C13.3772 0.695671 13.1178 0.442875 12.8077 0.267419C12.4976 0.0919627 12.1473 -0.000169443 11.7911 2.33942e-07H7.45895C7.1028 -2.10018e-05 6.75271 0.0921817 6.44278 0.267631C6.13284 0.44308 5.87362 0.695796 5.69035 1.00117L4.22855 3.4375H0.6875C0.505164 3.4375 0.330295 3.50993 0.201364 3.63886C0.0724328 3.76779 0 3.94266 0 4.125L0 4.8125C0 4.99484 0.0724328 5.1697 0.201364 5.29863C0.330295 5.42757 0.505164 5.5 0.6875 5.5H1.375V19.9375C1.375 20.4845 1.5923 21.0091 1.97909 21.3959C2.36589 21.7827 2.89049 22 3.4375 22H15.8125C16.3595 22 16.8841 21.7827 17.2709 21.3959C17.6577 21.0091 17.875 20.4845 17.875 19.9375V5.5H18.5625C18.7448 5.5 18.9197 5.42757 19.0486 5.29863C19.1776 5.1697 19.25 4.99484 19.25 4.8125V4.125C19.25 3.94266 19.1776 3.76779 19.0486 3.63886C18.9197 3.50993 18.7448 3.4375 18.5625 3.4375ZM7.38375 2.18754C7.40673 2.14929 7.43924 2.11766 7.4781 2.09575C7.51696 2.07383 7.56085 2.06237 7.60547 2.0625H11.6445C11.6891 2.06245 11.7329 2.07394 11.7717 2.09585C11.8104 2.11777 11.8429 2.14936 11.8658 2.18754L12.6161 3.4375H6.63395L7.38375 2.18754ZM15.8125 19.9375H3.4375V5.5H15.8125V19.9375ZM6.70312 17.875H7.73438C7.87113 17.875 8.00228 17.8207 8.09898 17.724C8.19567 17.6273 8.25 17.4961 8.25 17.3594V8.07812C8.25 7.94137 8.19567 7.81022 8.09898 7.71352C8.00228 7.61682 7.87113 7.5625 7.73438 7.5625H6.70312C6.56637 7.5625 6.43522 7.61682 6.33852 7.71352C6.24183 7.81022 6.1875 7.94137 6.1875 8.07812V17.3594C6.1875 17.4961 6.24183 17.6273 6.33852 17.724C6.43522 17.8207 6.56637 17.875 6.70312 17.875Z" fill="#767676"/>
</g>
<defs>
<clipPath id="clip0_344_207">
<rect width="19.25" height="22" fill="white"/>
</clipPath>
</defs>
</svg>
