<svg width="34" height="32" viewBox="0 0 34 32" fill="none" xmlns="http://www.w3.org/2000/svg">
<path d="M2 13.1098C2 12.5778 2.43129 12.1465 2.96331 12.1465H31.2204C31.7524 12.1465 32.1837 12.5778 32.1837 13.1098V16.398C32.1837 16.93 31.7524 17.3613 31.2204 17.3613H5.42335H2.96331C2.43129 17.3613 2 16.9302 2 16.398V13.1098Z" stroke="#45BA66" stroke-width="3"/>
<path d="M9.19336 2H10.0853C13.4548 2 16.1862 4.7315 16.1862 8.10096V8.99291H14.0099C11.3498 8.99291 9.19336 6.83647 9.19336 4.17636V2Z" stroke="#45BA66" stroke-width="3"/>
<path d="M25.1043 2H24.2123C20.8429 2 18.1113 4.7315 18.1113 8.10096V8.99291H20.2878C22.9479 8.99291 25.1043 6.83647 25.1043 4.17636V2Z" stroke="#45BA66" stroke-width="3"/>
<path d="M25.7675 30.0003H8.41747L6.52344 17.4131H27.6615L25.7675 30.0003Z" stroke="#45BA66" stroke-width="3" stroke-linecap="round"/>
</svg>
