<svg width="151" height="126" viewBox="0 0 151 126" fill="none" xmlns="http://www.w3.org/2000/svg">
<rect width="150.248" height="126" rx="10" fill="#F7F8FA"/>
<path d="M98.2504 39.2016V65.4343C98.2504 67.848 96.3083 69.8064 93.9145 69.8064H56.336C53.9422 69.8064 52 67.848 52 65.4343V39.2016C52 36.7878 53.9422 34.8295 56.336 34.8295H64.2853L65.3964 31.8328C66.0287 30.1295 67.6457 29 69.4523 29H80.7891C82.5958 29 84.2127 30.1295 84.845 31.8328L85.9652 34.8295H93.9145C96.3083 34.8295 98.2504 36.7878 98.2504 39.2016ZM85.9652 52.3179C85.9652 46.2881 81.1053 41.3877 75.1252 41.3877C69.1452 41.3877 64.2853 46.2881 64.2853 52.3179C64.2853 58.3478 69.1452 63.2482 75.1252 63.2482C81.1053 63.2482 85.9652 58.3478 85.9652 52.3179ZM83.0745 52.3179C83.0745 56.7356 79.5064 60.3335 75.1252 60.3335C70.7441 60.3335 67.1759 56.7356 67.1759 52.3179C67.1759 47.9003 70.7441 44.3024 75.1252 44.3024C79.5064 44.3024 83.0745 47.9003 83.0745 52.3179Z" fill="#767676"/>
<path d="M47.976 84.6144V86.2344C47.976 88.2984 47.124 90.4344 45.252 91.3104L46.212 92.5944C48.312 91.5624 49.272 88.9824 49.272 86.2344V84.6144H47.976ZM48.3 84.6144V86.2344C48.3 88.8984 49.176 91.3704 51.18 92.3904L52.14 91.1184C50.364 90.2544 49.572 88.2264 49.572 86.2344V84.6144H48.3ZM52.584 83.7624V94.8744H54.192V83.7624H52.584ZM53.832 88.0344V89.3664H55.8V88.0344H53.832ZM59.2191 84.9984V85.9344C59.2191 87.3384 58.4151 88.7784 56.5671 89.3784L57.3831 90.6264C59.5191 89.9304 60.5391 88.0344 60.5391 85.9344V84.9984H59.2191ZM59.5431 84.9984V85.9344C59.5431 87.9504 60.5511 89.7624 62.6391 90.4224L63.4551 89.1864C61.6431 88.6104 60.8511 87.2544 60.8511 85.9344V84.9984H59.5431ZM56.9871 84.5544V85.8144H63.0351V84.5544H56.9871ZM64.1511 83.7744V91.7904H65.7591V83.7744H64.1511ZM58.3551 93.4104V94.6824H66.0351V93.4104H58.3551ZM58.3551 91.0704V94.0464H59.9511V91.0704H58.3551ZM74.7584 87.2784V88.7544H76.3424V87.2784H74.7584ZM75.5744 83.8704C73.0304 83.8704 71.5544 84.5304 71.5544 85.7544C71.5544 86.9784 73.0304 87.6504 75.5744 87.6504C78.1064 87.6504 79.5944 86.9784 79.5944 85.7544C79.5944 84.5304 78.1064 83.8704 75.5744 83.8704ZM75.5744 85.0344C77.1824 85.0344 77.9384 85.2624 77.9384 85.7544C77.9384 86.2704 77.1824 86.4864 75.5744 86.4864C73.9664 86.4864 73.2104 86.2704 73.2104 85.7544C73.2104 85.2624 73.9664 85.0344 75.5744 85.0344ZM70.5464 88.2624V89.5224H80.5904V88.2624H70.5464ZM71.6984 90.1104V91.2984H77.8064V91.8624H71.7104V93.9504H73.2824V92.9664H79.3784V90.1104H71.6984ZM71.7104 93.6024V94.8024H79.6664V93.6024H71.7104ZM89.2415 83.7504V94.8984H90.8375V83.7504H89.2415ZM82.1855 91.0104V92.3064H83.1695C85.1975 92.3064 86.8295 92.2464 88.6295 91.9224L88.4735 90.6384C86.7095 90.9384 85.1375 91.0104 83.1695 91.0104H82.1855ZM82.1735 84.6984V85.9704H85.7855V87.7344H82.1855V91.4904H83.8055V88.9944H87.4175V84.6984H82.1735ZM100.281 83.7624V94.8744H101.889V83.7624H100.281ZM97.0045 84.9144V85.2024C97.0045 88.1784 95.8525 90.1944 92.6605 91.7304L93.4885 93.0024C97.4365 91.0944 98.5885 88.3104 98.5885 84.9144H97.0045ZM93.2485 84.9144V86.1744H97.7605V84.9144H93.2485Z" fill="#767676"/>
</svg>
