<svg width="40" height="18" viewBox="0 0 40 18" fill="none" xmlns="http://www.w3.org/2000/svg">
<path d="M9.76172 13.2031V17H1.67578V13.1797L2.73047 13.2031V5.86719H0.808594V2.84375L8.56641 0.898438L8.63672 13.2031H9.76172ZM15.9727 17.2344C15.4492 17.2344 14.9023 17.1914 14.332 17.1055C13.7617 17.0273 13.2383 16.9062 12.7617 16.7422C12.293 16.5781 11.9297 16.375 11.6719 16.1328L11.6953 16.1094V12.9453C12.6016 13.4531 13.4648 13.707 14.2852 13.707C14.9414 13.707 15.5312 13.543 16.0547 13.2148C16.5859 12.8867 16.8516 12.4141 16.8516 11.7969C16.8516 11.1719 16.5938 10.6797 16.0781 10.3203C15.5703 9.96094 14.957 9.78125 14.2383 9.78125C13.3867 9.78125 12.5781 10.0273 11.8125 10.5195L11.6719 10.4023V1.08594H22.3945V4.56641H15.2461V6.19531C15.9883 6.07031 16.8125 6.00781 17.7188 6.00781C18.7266 6.00781 19.6562 6.21875 20.5078 6.64062C21.3516 7.07031 22.0234 7.66406 22.5234 8.42188C23.0312 9.17969 23.2852 10.0391 23.2852 11C23.2852 12.3047 22.9844 13.4336 22.3828 14.3867C21.7734 15.332 20.9141 16.043 19.8047 16.5195C18.7031 16.9961 17.4258 17.2344 15.9727 17.2344ZM32.2734 17.3164C29.9844 17.3164 28.1992 16.5742 26.918 15.0898C25.6367 13.5977 24.9961 11.5234 24.9961 8.86719C24.9961 6.35156 25.6328 4.39453 26.9062 2.99609C28.1797 1.59766 29.957 0.898438 32.2383 0.898438C34.5273 0.898438 36.3086 1.59766 37.582 2.99609C38.8555 4.39453 39.4922 6.35156 39.4922 8.86719C39.4922 10.6328 39.207 12.1445 38.6367 13.4023C38.0664 14.668 37.2383 15.6367 36.1523 16.3086C35.0664 16.9805 33.7734 17.3164 32.2734 17.3164ZM33.7617 9.19531C33.7617 8.22656 33.7188 7.45312 33.6328 6.875C33.5391 6.32031 33.3828 5.92578 33.1641 5.69141C32.9531 5.45703 32.6562 5.33984 32.2734 5.33984C31.8672 5.33984 31.5508 5.45703 31.3242 5.69141C31.0586 5.95703 30.8828 6.40234 30.7969 7.02734C30.7188 7.64453 30.6797 8.35938 30.6797 9.17188C30.6797 10.1562 30.7305 10.9023 30.832 11.4102C30.9258 11.9492 31.082 12.3359 31.3008 12.5703C31.5273 12.8047 31.832 12.9219 32.2148 12.9219C32.6211 12.9219 32.9336 12.8047 33.1523 12.5703C33.3945 12.3047 33.5547 11.8711 33.6328 11.2695C33.7188 10.668 33.7617 9.97656 33.7617 9.19531Z" fill="#35B1B1"/>
</svg>
