<svg width="34" height="32" viewBox="0 0 34 32" fill="none" xmlns="http://www.w3.org/2000/svg">
<path d="M2.12793 13.1098C2.12793 12.5778 2.55922 12.1465 3.09124 12.1465H31.3483C31.8803 12.1465 32.3116 12.5778 32.3116 13.1098V16.398C32.3116 16.93 31.8803 17.3613 31.3483 17.3613H5.55127H3.09124C2.55922 17.3613 2.12793 16.9302 2.12793 16.398V13.1098Z" stroke="#45BA66" stroke-width="3"/>
<path d="M9.32129 2H10.2132C13.5827 2 16.3141 4.7315 16.3141 8.10096V8.99291H14.1378C11.4777 8.99291 9.32129 6.83647 9.32129 4.17636V2Z" stroke="#45BA66" stroke-width="3"/>
<path d="M25.2327 2H24.3407C20.9713 2 18.2397 4.7315 18.2397 8.10096V8.99291H20.4162C23.0763 8.99291 25.2327 6.83647 25.2327 4.17636V2Z" stroke="#45BA66" stroke-width="3"/>
<path d="M25.8955 30.0003H8.5454L6.65137 17.4131H27.7895L25.8955 30.0003Z" stroke="#45BA66" stroke-width="3" stroke-linecap="round"/>
</svg>
